<svg width="24" height="24" viewBox="0 0 24 24" fill="none" xmlns="http://www.w3.org/2000/svg">
<path d="M3.64746 15.9404C3.64746 15.4961 4.00293 15.1543 4.47461 15.1543H5.90332C6.69629 15.1543 7.18848 14.8877 7.74219 14.2109L9.23926 12.3857L7.74219 10.5674C7.18848 9.89746 6.60742 9.63086 5.80762 9.63086H4.47461C4.00293 9.63086 3.64746 9.28906 3.64746 8.83789C3.64746 8.38672 4.00293 8.05176 4.47461 8.05176H5.95801C7.12012 8.05176 7.91992 8.40723 8.6582 9.30273L10.2168 11.1963L11.6387 9.4668C12.5273 8.37988 13.3477 8.05176 14.5918 8.05176H15.7949V6.55469C15.7949 6.17188 16.0273 5.94629 16.3965 5.94629C16.5742 5.94629 16.7246 6.00781 16.8408 6.10352L19.5068 8.3457C19.7939 8.5918 19.7939 8.97461 19.5068 9.21387L16.8408 11.4561C16.7246 11.5518 16.5742 11.6133 16.3965 11.6133C16.0273 11.6133 15.7949 11.3877 15.7949 11.0049V9.63086H14.5303C13.7236 9.63086 13.2861 9.86328 12.7119 10.5605L11.208 12.3926L12.7051 14.2109C13.252 14.8809 13.7852 15.1543 14.6123 15.1543H15.7949V13.7803C15.7949 13.3975 16.0273 13.1719 16.3965 13.1719C16.5742 13.1719 16.7246 13.2334 16.8408 13.3291L19.5068 15.5713C19.7939 15.8174 19.7939 16.2002 19.5068 16.4395L16.8408 18.6816C16.7246 18.7773 16.5742 18.8389 16.3965 18.8389C16.0273 18.8389 15.7949 18.6133 15.7949 18.2305V16.7334H14.5781C13.416 16.7334 12.5205 16.3779 11.7275 15.4141L10.2236 13.582L8.6582 15.4824C7.91992 16.3711 7.21582 16.7266 6.05371 16.7266H4.47461C4.00293 16.7266 3.64746 16.3916 3.64746 15.9404Z" fill="currentColor"/>
</svg>
