<svg width="24" height="24" viewBox="0 0 24 24" fill="none" xmlns="http://www.w3.org/2000/svg">
<path d="M11.6357 13.9717C11.2393 13.9717 10.918 13.6436 10.918 13.2676V6.92383L10.9795 5.97363L10.6309 6.46582L9.81738 7.32715C9.70117 7.46387 9.52344 7.53223 9.3457 7.53223C9.01758 7.53223 8.73047 7.28613 8.73047 6.9375C8.73047 6.75293 8.79883 6.62305 8.92188 6.49316L11.0752 4.42871C11.2598 4.24414 11.4443 4.18262 11.6357 4.18262C11.8271 4.18262 12.0049 4.24414 12.1963 4.42871L14.3428 6.49316C14.4727 6.62305 14.541 6.75293 14.541 6.9375C14.541 7.28613 14.2471 7.53223 13.9189 7.53223C13.7412 7.53223 13.5703 7.46387 13.4473 7.32715L12.6406 6.46582L12.2852 5.97363L12.3467 6.92383V13.2676C12.3467 13.6436 12.0322 13.9717 11.6357 13.9717ZM7.89648 19.249C6.44043 19.249 5.64746 18.4697 5.64746 17.0205V10.7725C5.64746 9.33008 6.44043 8.54395 7.89648 8.54395H9.67383V10.123H8.05371C7.51367 10.123 7.22656 10.3896 7.22656 10.957V16.8359C7.22656 17.4033 7.51367 17.6699 8.05371 17.6699H15.2178C15.751 17.6699 16.0449 17.4033 16.0449 16.8359V10.957C16.0449 10.3896 15.751 10.123 15.2178 10.123H13.5977V8.54395H15.375C16.8311 8.54395 17.6172 9.33008 17.6172 10.7725V17.0205C17.6172 18.4629 16.8311 19.249 15.375 19.249H7.89648Z" fill="currentColor"/>
</svg>
