<svg width="13" height="15" viewBox="0 0 13 15" fill="none" xmlns="http://www.w3.org/2000/svg">
<path d="M5.37695 14.4131C5.01465 14.4131 4.74121 14.126 4.74121 13.7705V0.898438C4.74121 0.542969 5.01465 0.255859 5.37695 0.255859C5.73926 0.255859 6.02637 0.542969 6.02637 0.898438V13.7705C6.02637 14.126 5.73926 14.4131 5.37695 14.4131ZM9.96387 12.998C9.6084 12.998 9.32812 12.7109 9.32812 12.3555V2.31348C9.32812 1.95801 9.6084 1.66406 9.96387 1.66406C10.3262 1.66406 10.6133 1.95801 10.6133 2.31348V12.3555C10.6133 12.7109 10.3262 12.998 9.96387 12.998ZM3.08008 12.0205C2.72461 12.0205 2.44434 11.7334 2.44434 11.3779V3.29102C2.44434 2.92871 2.72461 2.63477 3.08008 2.63477C3.44238 2.63477 3.72949 2.92871 3.72949 3.29102V11.3779C3.72949 11.7334 3.44238 12.0205 3.08008 12.0205ZM7.67383 11.1113C7.31152 11.1113 7.03125 10.8311 7.03125 10.4756V4.19336C7.03125 3.83789 7.31152 3.54395 7.67383 3.54395C8.03613 3.54395 8.31641 3.83789 8.31641 4.19336V10.4756C8.31641 10.8311 8.03613 11.1113 7.67383 11.1113ZM12.2607 9.9082C11.8984 9.9082 11.625 9.62109 11.625 9.25879V5.40332C11.625 5.04785 11.8984 4.75391 12.2607 4.75391C12.623 4.75391 12.9102 5.04785 12.9102 5.40332V9.25879C12.9102 9.62109 12.623 9.9082 12.2607 9.9082ZM0.783203 9.46387C0.427734 9.46387 0.147461 9.17676 0.147461 8.82129V5.84766C0.147461 5.49219 0.427734 5.19824 0.783203 5.19824C1.15234 5.19824 1.43262 5.49219 1.43262 5.84766V8.82129C1.43262 9.17676 1.15234 9.46387 0.783203 9.46387Z" fill="#000000"/>
</svg>
